<?xml version="1.0" standalone="no"?><!DOCTYPE svg PUBLIC "-//W3C//DTD SVG 1.1//EN" "http://www.w3.org/Graphics/SVG/1.1/DTD/svg11.dtd"><svg t="1529585765058" class="icon" style="" viewBox="0 0 1024 1024" version="1.1" xmlns="http://www.w3.org/2000/svg" p-id="2720" xmlns:xlink="http://www.w3.org/1999/xlink" width="64" height="64"><defs><style type="text/css"></style></defs><path d="M599.0501 771.06122 419.496701 771.06122c-2.681062 0-5.363148-0.447185-7.895831-1.416256-12.141528-4.468778-48.343031-33.593096-115.716488-101.899808-163.725922-165.959799-150.876266-309.273832-150.169161-315.233568C145.566842 191.319373 306.945299 64.690348 508.622578 64.690348c201.639416 0 363.613438 126.256542 366.331339 290.130843 0.149403 9.014304 11.918447 144.581909-151.806451 310.541709-67.412342 68.306712-104.09787 99.81431-116.201535 104.283088C604.413248 770.615059 601.769025 771.06122 599.0501 771.06122L599.0501 771.06122zM421.620062 735.082798l173.408445 0.595564c8.826016-6.92676 35.418674-30.912034 102.495372-98.91994 148.4541-150.391219 141.973502-275.308253 141.826146-276.499381C839.200622 218.880079 684.414303 101.635795 508.027014 101.635795c-176.426175 0-325.365322 116.349915-325.365322 255.047814-0.297782 3.798513-11.211343 129.831974 135.866411 278.882662M426.499186 731.953528" p-id="2721"></path><path d="M559.906591 967.263811l-101.414761 0c-10.875698 0-20.2236-7.673773-22.3838-18.325367l-26.14445-118.659517c-1.416256-6.777357 0.297782-13.778818 4.65502-19.069311 4.357238-5.363148 10.838859-8.490372 17.764596-8.490372l153.222707 0c6.889921 0 13.408381 3.127224 17.72878 8.490372 4.394077 5.290493 6.107091 12.291954 4.691859 19.069311l-25.698289 118.659517C580.094376 959.590038 570.78229 967.263811 559.906591 967.263811L559.906591 967.263811zM465.121831 932.327114l87.001493 0 18.286482-94.971002-123.947963 0.595564M477.150796 921.451416" p-id="2722"></path><path d="M488.174873 770.687714C447.57827 584.392774 472.421075 115.714442 473.500663 95.825462l38.063921 2.085498c-0.260943 4.767584-25.624611 483.428268 13.928221 664.658865L488.174873 770.687714z" p-id="2723"></path><path d="M427.951257 763.389494c-2.196015-5.513574-54.487985-135.942135-69.980841-180.412976-11.172457-32.029484-32.253588-97.0565-41.192168-130.874723-25.474185-96.53666-21.898753-186.220239 10.9504-274.265504 20.857027-55.94108 55.008848-91.098811 56.461943-92.588745l27.225061 26.741038c-0.297782 0.298805-30.055526 31.210839-48.007387 79.180364-29.945009 80.373539-33.147958 162.53377-9.758248 251.1746 8.343015 31.732725 29.124318 95.940073 40.296775 128.046305 15.270798 43.648103 68.902276 177.50474 69.423139 178.844248L427.951257 763.389494z" p-id="2724"></path><path d="M561.322847 761.15357l-35.903721-12.886495c0.818645-2.308579 82.458013-229.870388 101.825107-317.095985 20.893866-94.078679 17.654079-178.846294-9.608845-251.919567-17.802458-47.746444-40.074717-71.284533-40.298821-71.508637l27.337625-26.590612c1.11745 1.116427 27.859511 28.826536 48.715515 84.766592 29.868261 80.149435 33.593096 172.142615 11.097756 273.520537C644.600529 528.974603 564.712037 751.767805 561.322847 761.15357z" p-id="2725"></path><path d="M671.976016 695.000917l-36.839023 3.069919c206.638267-286.501176 63.268976-550.8314 64.469314-548.832883l32.744775-6.822382C726.726991 133.019573 895.45995 393.263735 671.976016 695.000917z" p-id="2726"></path></svg>